<svg width="30" height="30" viewBox="0 0 30 30" fill="none" xmlns="http://www.w3.org/2000/svg">
<mask id="mask0_2383_596" style="mask-type:alpha" maskUnits="userSpaceOnUse" x="0" y="0" width="30" height="30">
<rect width="30" height="30" fill="#D9D9D9"/>
</mask>
<g mask="url(#mask0_2383_596)">
<path d="M6.25 26.25C5.5625 26.25 4.97375 26.0054 4.48375 25.5163C3.99458 25.0263 3.75 24.4375 3.75 23.75V18.75H6.25V23.75H11.25V26.25H6.25ZM18.75 26.25V23.75H23.75V18.75H26.25V23.75C26.25 24.4375 26.0054 25.0263 25.5163 25.5163C25.0263 26.0054 24.4375 26.25 23.75 26.25H18.75ZM15 20C13.625 20 12.4479 19.5104 11.4688 18.5312C10.4896 17.5521 10 16.375 10 15C10 13.625 10.4896 12.4479 11.4688 11.4688C12.4479 10.4896 13.625 10 15 10C16.375 10 17.5521 10.4896 18.5312 11.4688C19.5104 12.4479 20 13.625 20 15C20 16.375 19.5104 17.5521 18.5312 18.5312C17.5521 19.5104 16.375 20 15 20ZM3.75 11.25V6.25C3.75 5.5625 3.99458 4.97375 4.48375 4.48375C4.97375 3.99458 5.5625 3.75 6.25 3.75H11.25V6.25H6.25V11.25H3.75ZM23.75 11.25V6.25H18.75V3.75H23.75C24.4375 3.75 25.0263 3.99458 25.5163 4.48375C26.0054 4.97375 26.25 5.5625 26.25 6.25V11.25H23.75Z" fill="white"/>
</g>
</svg>
